<svg width="366" height="78" viewBox="0 0 366 78" fill="none" xmlns="http://www.w3.org/2000/svg">
<path d="M27.9579 58.6553C26.1143 57.4976 23.8525 57.5516 22.061 58.7744L16.5573 62.5311C15.2676 62.2888 13.9016 62.435 12.7026 62.9706L6.09051 65.9243C4.91045 66.4514 3.95308 67.2947 3.41095 68.4152C2.86854 69.5362 2.82732 70.7656 3.19371 71.8664C3.93338 74.0888 6.14869 75.4915 8.72438 75.4915H43.0518C45.6714 75.4915 47.9096 74.0454 48.6126 71.7727C48.9599 70.6498 48.8846 69.4069 48.3035 68.2898C47.723 67.174 46.7284 66.3498 45.5158 65.8515L38.3288 62.8978C37.0523 62.3732 35.6024 62.2783 34.2628 62.6146L27.9579 58.6553Z" fill="#F9FCF8" stroke="#EDFFEC" stroke-width="4.81016"/>
<path d="M30.9857 15.87C27.6841 21.8224 26.8765 29.1068 28.3313 35.6639C33.2505 35.1009 38.0945 31.8918 41.319 26.0782C44.6206 20.1258 45.4282 12.8414 43.9734 6.28433C39.0542 6.84729 34.2103 10.0564 30.9857 15.87Z" fill="white" stroke="white" stroke-width="3.4983"/>
<path d="M27.239 33.0542C27.2869 31.6531 28.0211 30.1567 28.7154 29.0063C30.0728 26.7572 31.8946 24.9428 33.4907 22.9049C34.7959 21.2385 36.4282 19.8862 37.7193 18.2252C38.1559 17.6635 38.9122 17.1807 39.2139 16.5271" stroke="white" stroke-width="4.81016" stroke-linecap="round"/>
<path d="M28.3333 41.4893C31.2062 32.911 30.8945 22.7904 26.7922 14.2667C22.69 5.74324 15.7382 0.77209 8.41409 0.101491C5.54119 8.67984 5.85283 18.8005 9.95515 27.3241C14.0574 35.8476 21.0091 40.8187 28.3333 41.4893Z" fill="white"/>
<path d="M19.1329 20.9741C19.5548 21.4449 19.862 22.0884 20.1963 22.6454C21.1659 24.2612 22.1713 25.8723 23.046 27.5663C23.8398 29.1035 24.5381 30.6761 25.2027 32.297C26.3773 35.162 27.6374 38.6094 27.5889 41.8705C27.5554 44.1207 27.5407 46.2905 27.2313 48.5219C27.0491 49.8361 26.8526 51.1384 26.6395 52.4442C26.493 53.3417 26.4545 54.274 26.274 55.1556C26.2127 55.4551 25.9036 56.7886 26.1048 57.0028" stroke="white" stroke-width="4.81016" stroke-linecap="round"/>
<path d="M19.2085 19.8629C19.2085 19.184 19.3619 18.5322 19.4803 17.8735C19.547 17.5026 19.6028 17.1298 19.6725 16.7595C19.7682 16.2511 19.7807 15.728 19.8743 15.2194C19.9758 14.6677 20.0418 14.1104 20.1571 13.5616C20.213 13.2954 20.2584 13.0258 20.3067 12.7575C20.3256 12.6528 20.3699 12.5407 20.3699 12.4326" stroke="white" stroke-width="4.81016" stroke-linecap="round"/>
<path d="M18.6403 20.5792C18.279 20.5624 17.9213 20.3377 17.5695 20.2509C17.1266 20.1416 16.6841 20.0149 16.2434 19.8928C15.9202 19.8033 15.611 19.6381 15.299 19.5049C15.1319 19.4336 14.9563 19.3893 14.7869 19.3258C14.7084 19.2964 14.6222 19.2363 14.5385 19.2363" stroke="white" stroke-width="4.81016" stroke-linecap="round"/>
<path d="M72.584 40.104C72.584 36.776 73.304 33.816 74.744 31.224C76.184 28.6 78.184 26.568 80.744 25.128C83.336 23.656 86.264 22.92 89.528 22.92C93.528 22.92 96.952 23.976 99.8 26.088C102.648 28.2 104.552 31.08 105.512 34.728H96.488C95.816 33.32 94.856 32.248 93.608 31.512C92.392 30.776 91 30.408 89.432 30.408C86.904 30.408 84.856 31.288 83.288 33.048C81.72 34.808 80.936 37.16 80.936 40.104C80.936 43.048 81.72 45.4 83.288 47.16C84.856 48.92 86.904 49.8 89.432 49.8C91 49.8 92.392 49.432 93.608 48.696C94.856 47.96 95.816 46.888 96.488 45.48H105.512C104.552 49.128 102.648 52.008 99.8 54.12C96.952 56.2 93.528 57.24 89.528 57.24C86.264 57.24 83.336 56.52 80.744 55.08C78.184 53.608 76.184 51.576 74.744 48.984C73.304 46.392 72.584 43.432 72.584 40.104ZM118.747 34.68C119.707 33.208 120.907 32.056 122.347 31.224C123.787 30.36 125.387 29.928 127.147 29.928V38.616H124.891C122.843 38.616 121.307 39.064 120.283 39.96C119.259 40.824 118.747 42.36 118.747 44.568V57H110.539V30.216H118.747V34.68ZM143.262 57.384C140.638 57.384 138.27 56.824 136.158 55.704C134.078 54.584 132.43 52.984 131.214 50.904C130.03 48.824 129.438 46.392 129.438 43.608C129.438 40.856 130.046 38.44 131.262 36.36C132.478 34.248 134.142 32.632 136.254 31.512C138.366 30.392 140.734 29.832 143.358 29.832C145.982 29.832 148.35 30.392 150.462 31.512C152.574 32.632 154.238 34.248 155.454 36.36C156.67 38.44 157.278 40.856 157.278 43.608C157.278 46.36 156.654 48.792 155.406 50.904C154.19 52.984 152.51 54.584 150.366 55.704C148.254 56.824 145.886 57.384 143.262 57.384ZM143.262 50.28C144.83 50.28 146.158 49.704 147.246 48.552C148.366 47.4 148.926 45.752 148.926 43.608C148.926 41.464 148.382 39.816 147.294 38.664C146.238 37.512 144.926 36.936 143.358 36.936C141.758 36.936 140.43 37.512 139.374 38.664C138.318 39.784 137.79 41.432 137.79 43.608C137.79 45.752 138.302 47.4 139.326 48.552C140.382 49.704 141.694 50.28 143.262 50.28ZM169.84 34.008C170.64 32.76 171.744 31.752 173.152 30.984C174.56 30.216 176.208 29.832 178.096 29.832C180.304 29.832 182.304 30.392 184.096 31.512C185.888 32.632 187.296 34.232 188.32 36.312C189.376 38.392 189.904 40.808 189.904 43.56C189.904 46.312 189.376 48.744 188.32 50.856C187.296 52.936 185.888 54.552 184.096 55.704C182.304 56.824 180.304 57.384 178.096 57.384C176.24 57.384 174.592 57 173.152 56.232C171.744 55.464 170.64 54.472 169.84 53.256V69.768H161.632V30.216H169.84V34.008ZM181.552 43.56C181.552 41.512 180.976 39.912 179.824 38.76C178.704 37.576 177.312 36.984 175.648 36.984C174.016 36.984 172.624 37.576 171.472 38.76C170.352 39.944 169.792 41.56 169.792 43.608C169.792 45.656 170.352 47.272 171.472 48.456C172.624 49.64 174.016 50.232 175.648 50.232C177.28 50.232 178.672 49.64 179.824 48.456C180.976 47.24 181.552 45.608 181.552 43.56ZM206.402 57.336C203.938 57.336 201.73 56.936 199.778 56.136C197.826 55.336 196.258 54.152 195.074 52.584C193.922 51.016 193.314 49.128 193.25 46.92H201.986C202.114 48.168 202.546 49.128 203.282 49.8C204.018 50.44 204.978 50.76 206.162 50.76C207.378 50.76 208.338 50.488 209.042 49.944C209.746 49.368 210.098 48.584 210.098 47.592C210.098 46.76 209.81 46.072 209.234 45.528C208.69 44.984 208.002 44.536 207.17 44.184C206.37 43.832 205.218 43.432 203.714 42.984C201.538 42.312 199.762 41.64 198.386 40.968C197.01 40.296 195.826 39.304 194.834 37.992C193.842 36.68 193.346 34.968 193.346 32.856C193.346 29.72 194.482 27.272 196.754 25.512C199.026 23.72 201.986 22.824 205.634 22.824C209.346 22.824 212.338 23.72 214.61 25.512C216.882 27.272 218.098 29.736 218.258 32.904H209.378C209.314 31.816 208.914 30.968 208.178 30.36C207.442 29.72 206.498 29.4 205.346 29.4C204.354 29.4 203.554 29.672 202.946 30.216C202.338 30.728 202.034 31.48 202.034 32.472C202.034 33.56 202.546 34.408 203.57 35.016C204.594 35.624 206.194 36.28 208.37 36.984C210.546 37.72 212.306 38.424 213.65 39.096C215.026 39.768 216.21 40.744 217.202 42.024C218.194 43.304 218.69 44.952 218.69 46.968C218.69 48.888 218.194 50.632 217.202 52.2C216.242 53.768 214.834 55.016 212.978 55.944C211.122 56.872 208.93 57.336 206.402 57.336ZM231.95 34.008C232.75 32.76 233.854 31.752 235.262 30.984C236.67 30.216 238.318 29.832 240.206 29.832C242.414 29.832 244.414 30.392 246.206 31.512C247.998 32.632 249.406 34.232 250.43 36.312C251.486 38.392 252.014 40.808 252.014 43.56C252.014 46.312 251.486 48.744 250.43 50.856C249.406 52.936 247.998 54.552 246.206 55.704C244.414 56.824 242.414 57.384 240.206 57.384C238.35 57.384 236.702 57 235.262 56.232C233.854 55.464 232.75 54.472 231.95 53.256V69.768H223.742V30.216H231.95V34.008ZM243.662 43.56C243.662 41.512 243.086 39.912 241.934 38.76C240.814 37.576 239.422 36.984 237.758 36.984C236.126 36.984 234.734 37.576 233.582 38.76C232.462 39.944 231.902 41.56 231.902 43.608C231.902 45.656 232.462 47.272 233.582 48.456C234.734 49.64 236.126 50.232 237.758 50.232C239.39 50.232 240.782 49.64 241.934 48.456C243.086 47.24 243.662 45.608 243.662 43.56ZM272.784 29.928C275.856 29.928 278.32 30.952 280.176 33C282.032 35.016 282.96 37.8 282.96 41.352V57H274.8V42.456C274.8 40.664 274.336 39.272 273.408 38.28C272.48 37.288 271.232 36.792 269.664 36.792C268.096 36.792 266.848 37.288 265.92 38.28C264.992 39.272 264.528 40.664 264.528 42.456V57H256.32V21.48H264.528V33.816C265.36 32.632 266.496 31.688 267.936 30.984C269.376 30.28 270.992 29.928 272.784 29.928ZM313.911 43.176C313.911 43.944 313.864 44.744 313.768 45.576H295.192C295.32 47.24 295.848 48.52 296.776 49.416C297.736 50.28 298.904 50.712 300.28 50.712C302.328 50.712 303.752 49.848 304.552 48.12H313.288C312.84 49.88 312.024 51.464 310.84 52.872C309.688 54.28 308.232 55.384 306.472 56.184C304.712 56.984 302.744 57.384 300.568 57.384C297.944 57.384 295.608 56.824 293.56 55.704C291.512 54.584 289.912 52.984 288.76 50.904C287.608 48.824 287.032 46.392 287.032 43.608C287.032 40.824 287.592 38.392 288.712 36.312C289.864 34.232 291.464 32.632 293.512 31.512C295.56 30.392 297.912 29.832 300.568 29.832C303.16 29.832 305.464 30.376 307.48 31.464C309.496 32.552 311.064 34.104 312.184 36.12C313.336 38.136 313.911 40.488 313.911 43.176ZM305.512 41.016C305.512 39.608 305.032 38.488 304.072 37.656C303.112 36.824 301.912 36.408 300.472 36.408C299.096 36.408 297.928 36.808 296.968 37.608C296.04 38.408 295.464 39.544 295.24 41.016H305.512ZM326.45 34.68C327.41 33.208 328.61 32.056 330.05 31.224C331.49 30.36 333.09 29.928 334.85 29.928V38.616H332.594C330.546 38.616 329.01 39.064 327.986 39.96C326.962 40.824 326.45 42.36 326.45 44.568V57H318.242V30.216H326.45V34.68ZM364.021 43.176C364.021 43.944 363.973 44.744 363.877 45.576H345.301C345.429 47.24 345.957 48.52 346.885 49.416C347.845 50.28 349.013 50.712 350.389 50.712C352.437 50.712 353.861 49.848 354.661 48.12H363.397C362.949 49.88 362.133 51.464 360.949 52.872C359.797 54.28 358.341 55.384 356.581 56.184C354.821 56.984 352.853 57.384 350.677 57.384C348.053 57.384 345.717 56.824 343.669 55.704C341.621 54.584 340.021 52.984 338.869 50.904C337.717 48.824 337.141 46.392 337.141 43.608C337.141 40.824 337.701 38.392 338.821 36.312C339.973 34.232 341.573 32.632 343.621 31.512C345.669 30.392 348.021 29.832 350.677 29.832C353.269 29.832 355.573 30.376 357.589 31.464C359.605 32.552 361.173 34.104 362.293 36.12C363.445 38.136 364.021 40.488 364.021 43.176ZM355.621 41.016C355.621 39.608 355.141 38.488 354.181 37.656C353.221 36.824 352.021 36.408 350.581 36.408C349.205 36.408 348.037 36.808 347.077 37.608C346.149 38.408 345.573 39.544 345.349 41.016H355.621Z" fill="white"/>
</svg>
